<svg xmlns="http://www.w3.org/2000/svg" viewBox="0 0 35.56 31.49"><g id="Capa_2" data-name="Capa 2"><g id="Capa_1-2" data-name="Capa 1"><path d="M18,31.49h-.51a50.94,50.94,0,0,1-11.77-9.3C1.63,17.69-2.12,10.62,1.4,4.69a9.75,9.75,0,0,1,16.33-.51c.13,0,.14-.08.2-.14a22.67,22.67,0,0,1,1.73-1.87A9.75,9.75,0,0,1,35.16,7c2.11,7.55-4.62,15.1-10,19.51A52.43,52.43,0,0,1,18,31.49ZM9,2A7.78,7.78,0,0,0,2.3,7.68C.15,15.8,10.49,24.74,16.56,28.56c.24.15,1.12.77,1.3.72,4.64-3,9.35-6.55,12.55-11.08C33,14.59,35,9.37,32.17,5.33a7.74,7.74,0,0,0-12.81.15c-.48.73-.88,2.42-2.08,1.75-.45-.25-.51-.78-.75-1.18A7.72,7.72,0,0,0,9,2Z"/></g></g></svg>