<svg xmlns="http://www.w3.org/2000/svg" viewBox="0 0 29.58 21.04"><defs><style>.cls-1{fill:#fff;}</style></defs><g id="Capa_2" data-name="Capa 2"><g id="Capa_1-2" data-name="Capa 1"><path class="cls-1" d="M26.74,0,2.66,0A3.15,3.15,0,0,0,0,2.78v15.5A3.11,3.11,0,0,0,2.84,21H26.75a3.13,3.13,0,0,0,2.83-2.84V2.83A3.14,3.14,0,0,0,26.74,0Zm-.27,1.86-7,8.75a3.4,3.4,0,0,1-1.64,1,17.44,17.44,0,0,1-3,.18c-1,0-2,0-2.51-.08a3.42,3.42,0,0,1-1.88-.83l-7.29-9ZM1.86,17.71V3.34L7.62,10.5Zm1.25,1.48L8.88,12l.11.11a5,5,0,0,0,3.24,1.49,42.53,42.53,0,0,0,5.05,0,5,5,0,0,0,3.31-1.49L20.7,12l5.77,7.21Zm24.61-1.48L22,10.54l5.77-7.21Z"/></g></g></svg>