<svg xmlns="http://www.w3.org/2000/svg" viewBox="0 0 13.76 13.17"><defs><style>.cls-1{fill:#d1b159;}</style></defs><g id="Capa_2" data-name="Capa 2"><g id="Capa_1-2" data-name="Capa 1"><path class="cls-1" d="M9.59,4.35h3.27A.89.89,0,0,1,13.39,6L10.74,7.89a.87.87,0,0,0-.33,1l1,3.12a.89.89,0,0,1-1.37,1L7.4,11.07a.89.89,0,0,0-1.05,0L3.7,13a.89.89,0,0,1-1.37-1l1-3.12a.88.88,0,0,0-.32-1L.37,6A.89.89,0,0,1,.89,4.35H4.17A.89.89,0,0,0,5,3.73L6,.62a.89.89,0,0,1,1.7,0l1,3.11A.89.89,0,0,0,9.59,4.35Z"/></g></g></svg>