<svg xmlns="http://www.w3.org/2000/svg" viewBox="0 0 92.78 56.13"><defs><style>.cls-1{fill:#3f3d32;}</style></defs><g id="Capa_2" data-name="Capa 2"><g id="Capa_1-2" data-name="Capa 1"><path class="cls-1" d="M91.87,42.22a31.52,31.52,0,0,0-19.36-8.55,31.6,31.6,0,0,0,5.08-20.56l-.12-1.25H76.21a31.57,31.57,0,0,0-20,7.37A31.5,31.5,0,0,0,45.48.81L44.53,0l-.89.88a31.2,31.2,0,0,0-8.9,16.92,31.76,31.76,0,0,0-18.17-5.92l-1.25,0-.13,1.25a31.55,31.55,0,0,0,5.08,20.55A31.59,31.59,0,0,0,.91,42.22L0,43.08l.77,1A31.4,31.4,0,0,0,22,55.92a30.61,30.61,0,0,0,3.59.21,31.51,31.51,0,0,0,20.76-7.81,31.52,31.52,0,0,0,20.77,7.81,33.18,33.18,0,0,0,3.58-.2A31.41,31.41,0,0,0,92,44.07l.77-1Zm-21.44,11a29,29,0,0,1-20.56-5.6A31.33,31.33,0,0,0,70.49,36.4l.07-.09a28.77,28.77,0,0,1,18.49,7,28.74,28.74,0,0,1-18.62,9.85Zm-48.08,0h0A28.64,28.64,0,0,1,3.74,43.35a28.76,28.76,0,0,1,18.48-7l.07.09a31.73,31.73,0,0,0,7,6.28,31.46,31.46,0,0,0,13.61,4.93A28.9,28.9,0,0,1,22.35,53.2Zm15.12-16A31.12,31.12,0,0,0,26.2,33.77c-.83-.1-1.7-.16-2.63-.18a28.76,28.76,0,0,1-5.75-18.93A28.92,28.92,0,0,1,34.35,21c-.07.84-.1,1.63-.1,2.4A31.6,31.6,0,0,0,37.47,37.25Zm1.07-12.18A28.61,28.61,0,0,1,45,40.39c-.07.77-.11,1.55-.13,2.34-.58-.58-1.18-1.14-1.79-1.66A29,29,0,0,1,37,23.35C37.55,23.92,38.06,24.49,38.54,25.07ZM30.8,40.39h0a28.69,28.69,0,0,1-4.7-3.87,28.63,28.63,0,0,1,15,6.49c.5.63,1,1.24,1.55,1.82A28.86,28.86,0,0,1,30.8,40.39Zm6.43-20.6a28.32,28.32,0,0,1,7.45-16,28.78,28.78,0,0,1,9.11,17.74c-.63.63-1.17,1.24-1.66,1.83a31.22,31.22,0,0,0-5.74,10.43,31.22,31.22,0,0,0-5.74-10.43A32.54,32.54,0,0,0,37.23,19.79Zm19.4,2.72A28.76,28.76,0,0,1,75,14.65a28.79,28.79,0,0,1-5.75,18.94c-.93,0-1.8.09-2.63.18a31.57,31.57,0,0,0-12.66,4.28A31.67,31.67,0,0,0,56.74,25C56.74,24.21,56.7,23.4,56.63,22.51Zm10,14A27.92,27.92,0,0,1,62,40.4a28.76,28.76,0,0,1-12.28,4.48l.19-.24A28.51,28.51,0,0,1,66.67,36.52ZM54,25.37a28.51,28.51,0,0,1-6.1,17.34c0-.78-.06-1.55-.13-2.3A28.67,28.67,0,0,1,54,25.37Z"/><path class="cls-1" d="M45.84,24.56a5.13,5.13,0,1,0-5.12-5.12A5.13,5.13,0,0,0,45.84,24.56Zm0-7.51a2.39,2.39,0,1,1-2.38,2.39A2.39,2.39,0,0,1,45.84,17.05Z"/></g></g></svg>