<svg xmlns="http://www.w3.org/2000/svg" viewBox="0 0 21.62 21.62"><defs><style>.cls-1{fill:#fff;}</style></defs><g id="Capa_2" data-name="Capa 2"><g id="Capa_1-2" data-name="Capa 1"><path class="cls-1" d="M21.56,5.66A6,6,0,0,0,16.92.15C16.63.08,16.33.07,16,0H5.94a5.76,5.76,0,0,0-1.6.21A6.09,6.09,0,0,0,0,5.52v10a6.32,6.32,0,0,0,.15,1.37,6,6,0,0,0,5.51,4.64c3.37-.16,6.92.2,10.28,0a6,6,0,0,0,5.62-5.62C21.76,12.58,21.4,9,21.56,5.66Zm-1.9,9.9a4.35,4.35,0,0,1-4.1,4.1c-3.3.18-6.79-.09-10.1-.05A4,4,0,0,1,3,18.32a4.05,4.05,0,0,1-1-2.76C2,12.42,1.74,9.15,1.89,6a4.07,4.07,0,0,1,4-4.13c3.13-.19,6.45.05,9.62,0A4,4,0,0,1,18.46,3.1a5,5,0,0,1,.37.42A4.09,4.09,0,0,1,19.61,6C19.6,9.14,19.83,12.43,19.66,15.56Z"/><path class="cls-1" d="M10.78,5.23a5.55,5.55,0,1,0,5.55,5.55A5.54,5.54,0,0,0,10.78,5.23Zm0,9.18a3.64,3.64,0,1,1,3.63-3.63A3.63,3.63,0,0,1,10.78,14.41Z"/><path class="cls-1" d="M16.57,3.61A1.4,1.4,0,1,0,18,5,1.39,1.39,0,0,0,16.57,3.61Z"/></g></g></svg>