<svg xmlns="http://www.w3.org/2000/svg" viewBox="0 0 43.11 10.72"><defs><style>.cls-1{fill:#fff;}</style></defs><g id="Capa_2" data-name="Capa 2"><g id="Capa_1-2" data-name="Capa 1"><polygon class="cls-1" points="0 0 0 10.27 7.06 10.27 7.06 8.17 3.35 8.17 3.35 0 0 0"/><path class="cls-1" d="M33.91,0h-4.2V10.27h4.2c2.24,0,3.85-.43,4.78-1.29A5,5,0,0,0,40,5.19a5.16,5.16,0,0,0-1.26-3.84C37.77.45,36.16,0,33.91,0Zm2,7.53a2.76,2.76,0,0,1-2.18.82h-.64V1.91h.64a2.72,2.72,0,0,1,2.18.86,4.27,4.27,0,0,1,.55,2.42A3.94,3.94,0,0,1,35.93,7.53Z"/><path class="cls-1" d="M41.61,7.46a1.5,1.5,0,0,0-1.08.41,1.32,1.32,0,0,0-.45,1,1.36,1.36,0,0,0,.45,1,1.49,1.49,0,0,0,1.08.43,1.44,1.44,0,0,0,1.07-.43,1.36,1.36,0,0,0,.43-1,1.34,1.34,0,0,0-.43-1A1.52,1.52,0,0,0,41.61,7.46Z"/><path class="cls-1" d="M20.16,9.69a5.66,5.66,0,0,0,3.58,1,5.66,5.66,0,0,0,3.58-1,3.12,3.12,0,0,0,1.26-2.58V0H25.24V7.33a1.23,1.23,0,0,1-.44,1,1.69,1.69,0,0,1-1,.36h-.14a1.69,1.69,0,0,1-1-.36,1.23,1.23,0,0,1-.44-1V0H18.9V7.11A3.12,3.12,0,0,0,20.16,9.69Z"/><path class="cls-1" d="M15,8.05l.66,2.22h3.24L15.39,0H11.25L7.73,10.27H11l.64-2.22ZM13.35,2.87l1.13,3.42H12.16Z"/></g></g></svg>