<svg xmlns="http://www.w3.org/2000/svg" viewBox="0 0 1563.23 439.79"><defs><style>.cls-1{fill:#c7b19e;}</style></defs><g id="Capa_2" data-name="Capa 2"><g id="Capa_1-2" data-name="Capa 1"><path class="cls-1" d="M1342.3,0V9.38H0V77.73H38.58v38.58H0V327.53H38.58v38.58H0v64.3H1342.3v9.38h220.93V0ZM70.34,91.67l549.86,55v14.68H530.31V268H620.2v11.57l-.19-2L70.34,327.48Zm9.35-3.13,540.45,14.22.06-2V142.6Zm-9.35,243L620.2,281.63v70.74L70.34,333.22ZM1193,407.46H70.34v-70.2L620.2,356.41v43.47h441.9V344.42H1193Zm0-71.82H1062.1V288.39H1193Zm0-56H1062.1v-55H1193Zm0-63.76H1062.1v-54.5H1193Zm0-63.28H1062.1V111.11H1193Zm0-50.24H1062.1v-65H620.2V98.72L70.34,84.25V27.83H1193Zm69.15-53.78h-37V80.48h37v268.7h-37v31.93h37v26.35h-49.31V27.83h49.31Zm62.12,351.34h-41.17V42h41.17Z"/></g></g></svg>