<svg xmlns="http://www.w3.org/2000/svg" viewBox="0 0 27.42 27.42"><defs><style>.cls-1{fill:#402518;}</style></defs><g id="Capa_2" data-name="Capa 2"><g id="Capa_1-2" data-name="Capa 1"><path class="cls-1" d="M13.71,27.42A13.71,13.71,0,1,1,27.42,13.71,13.73,13.73,0,0,1,13.71,27.42ZM13.71,2A11.71,11.71,0,1,0,25.42,13.71,11.72,11.72,0,0,0,13.71,2Z"/><path class="cls-1" d="M17.61,17.16l-4.5-3.36a1,1,0,0,1-.4-.8V6.8a1,1,0,0,1,1-1h0a1,1,0,0,1,1,1V12a1,1,0,0,0,.4.8l3.69,2.76A1,1,0,0,1,19,17h0A1,1,0,0,1,17.61,17.16Z"/></g></g></svg>