<svg xmlns="http://www.w3.org/2000/svg" viewBox="0 0 80.04 80.04"><defs><style>.cls-1{opacity:0.65;}.cls-2{fill:#f2ebdf;}</style></defs><g id="Capa_2" data-name="Capa 2"><g id="Capa_1-2" data-name="Capa 1"><g class="cls-1"><path class="cls-2" d="M40,80A40,40,0,1,1,80,40,40.07,40.07,0,0,1,40,80ZM40,4.51A35.51,35.51,0,1,0,75.53,40,35.55,35.55,0,0,0,40,4.51Z"/><path class="cls-2" d="M28,23.5v34a2.52,2.52,0,0,0,3.82,2.16L60.33,41.16a2.53,2.53,0,0,0,0-4.34L31.85,21.33A2.53,2.53,0,0,0,28,23.5Z"/></g></g></g></svg>