<svg xmlns="http://www.w3.org/2000/svg" viewBox="0 0 112.42 112.42"><defs><style>.cls-1{fill:#fff;}.cls-2{fill:#848272;}</style></defs><g id="Capa_2" data-name="Capa 2"><g id="Capa_1-2" data-name="Capa 1"><path class="cls-1" d="M56.21,112.42a56.34,56.34,0,0,1-23.46-5.12L14.5,111.18a12.07,12.07,0,0,1-2.4.25c-3.56,0-8.18,0-10.37-2.83S.1,100.59,1,97.13L5.29,80a56.21,56.21,0,1,1,50.92,32.4Z"/><path class="cls-2" d="M57.76,10A46.22,46.22,0,0,0,17.45,78.82L12.22,99.58A1.48,1.48,0,0,0,14,101.39l21.67-4.6A46.21,46.21,0,1,0,57.76,10Z"/><path class="cls-1" d="M53,71.85C46.11,66.09,35.32,54.37,35,45c-.18-5.86,3.3-11.22,9.3-12.2,2.11-.35,3.83-.49,5.06,1.5,1,1.63,3.12,8.75,3.4,10.75.44,3.06-4.7,3.51-5,5-.28,1.27,1.81,4.65,2.56,5.79A33.43,33.43,0,0,0,62.85,67c3.07,1.41,3-1.2,4.38-3.07.48-.64,1.22-1.49,2.08-1.52a18.5,18.5,0,0,1,3.24.77c1.88.53,8,2.45,9.19,3.71,1.44,1.59.17,5.7-.76,7.41C78.4,79,74,80.54,68.75,80S57,75.26,53,71.85Z"/></g></g></svg>