<svg xmlns="http://www.w3.org/2000/svg" viewBox="0 0 53.4 88.89"><defs><style>.cls-1{fill:#fff;}</style></defs><g id="Capa_2" data-name="Capa 2"><g id="Capa_1-2" data-name="Capa 1"><path class="cls-1" d="M32.21,24.19a5.91,5.91,0,1,1-5.91-5.91,5.9,5.9,0,0,1,5.91,5.91"/><path class="cls-1" d="M26.71,88.89A6,6,0,0,1,23.6,88a5.78,5.78,0,0,1-.68-.49c-1.87-1.6-3-5.08-3.56-10.63a69.28,69.28,0,0,1-.26-7.45c.42-14.51,1.58-18.07,2.82-20.7a34.35,34.35,0,0,1,2.91-5,40.32,40.32,0,0,0-5.3-5.43,76.74,76.74,0,0,1-6.07-6,60.26,60.26,0,0,1-4.27-5.16A48.14,48.14,0,0,1,0,.12L3,0a45.21,45.21,0,0,0,8.6,25.49,60.58,60.58,0,0,0,4.05,4.9l.4.44c2.15,2.33,3.92,3.91,5.48,5.32a44.6,44.6,0,0,1,5.17,5.2,44.55,44.55,0,0,1,5.16-5.2,75.16,75.16,0,0,0,5.48-5.32h0l.41-.43a59.23,59.23,0,0,0,4-4.9A45.22,45.22,0,0,0,50.4,0l3,.12a48.14,48.14,0,0,1-9.19,27.15,62.73,62.73,0,0,1-4.27,5.16,76.74,76.74,0,0,1-6.07,6,39.73,39.73,0,0,0-5.3,5.43,34.44,34.44,0,0,1,2.9,5c1.25,2.63,2.4,6.19,2.83,20.7A67.82,67.82,0,0,1,34,76.92c-.52,5.55-1.69,9-3.56,10.63a5,5,0,0,1-.67.49,5.94,5.94,0,0,1-3.09.85m0-42.49a31.22,31.22,0,0,0-2.07,3.66c-1.06,2.23-2.13,5.58-2.53,19.5-.15,5,.47,13.74,2.77,15.7a2.68,2.68,0,0,0,.3.23,3,3,0,0,0,1.54.4,3,3,0,0,0,1.51-.4,1.6,1.6,0,0,0,.3-.23c1.23-1,3.06-6.22,2.78-15.7-.41-13.92-1.48-17.27-2.54-19.5A31.3,31.3,0,0,0,26.7,46.4"/></g></g></svg>